<svg height="300px" width="300px" fill="#000000" xmlns="http://www.w3.org/2000/svg" xmlns:xlink="http://www.w3.org/1999/xlink" version="1.1" x="0px" y="0px" viewBox="0 0 100.0 100"><path d="M28,580 l1132,-472 c14,-6,25,-9,31,-9 c6,0,9,2,10,7 c-1,6,-6,17,-15,32 l-265,439 c-5,10,-8,16,-8,23 c0,7,3,13,8,23 l265,439 c9,15,14,26,15,32 c-1,5,-4,7,-10,7 c-6,0,-17,-3,-31,-9 l-1132,-471 c-19,-8,-28,-15,-27,-21 c-1,-6,8,-13,27,-20 Z M28,580 " fill="#000000" stroke="none" stroke-dasharray="none" stroke-linecap="inherit" stroke-linejoin="inherit" stroke-width="1" transform="matrix(0.05,0.0,0.0,-0.05,20.0,80.0)"/></svg>