<svg height="300px" width="300px" fill="#000000" xmlns="http://www.w3.org/2000/svg" xmlns:xlink="http://www.w3.org/1999/xlink" version="1.1" x="0px" y="0px" viewBox="0 0 100.0 100"><path d="M1172,621 l-1132,471 c-14,6,-25,9,-31,9 c-6,0,-9,-2,-9,-7 c0,-6,5,-17,14,-32 l265,-440 c5,-9,8,-15,8,-22 c0,-7,-3,-13,-8,-22 l-265,-440 c-9,-15,-14,-26,-14,-32 c0,-5,3,-7,9,-7 c6,0,17,3,31,9 l1132,471 c19,8,28,15,28,21 c0,6,-9,13,-28,21 Z M1172,621 " fill="#000000" stroke="none" stroke-dasharray="none" stroke-linecap="inherit" stroke-linejoin="inherit" stroke-width="1" transform="matrix(0.05,0.0,0.0,-0.05,20.0,80.0)"/></svg>