<svg height="300px" width="300px" fill="#000000" xmlns="http://www.w3.org/2000/svg" xmlns:xlink="http://www.w3.org/1999/xlink" version="1.1" x="0px" y="0px" viewBox="0 0 100.0 100"><path d="M579,1172 l-471,-1132 c-6,-14,-9,-25,-9,-31 c0,-6,2,-9,7,-9 c6,0,17,5,32,14 l440,265 c9,5,15,8,22,8 c7,0,13,-3,22,-8 l440,-265 c15,-9,26,-14,32,-14 c5,0,7,3,7,9 c0,6,-3,17,-9,31 l-471,1132 c-8,19,-15,28,-21,28 c-6,0,-13,-9,-21,-28 Z M579,1172 " fill="#000000" stroke="none" stroke-dasharray="none" stroke-linecap="inherit" stroke-linejoin="inherit" stroke-width="1" transform="matrix(0.05,0.0,0.0,-0.05,20.0,80.0)"/></svg>